<svg width="165" height="56" viewBox="0 0 165 56" fill="none" xmlns="http://www.w3.org/2000/svg">
<g style="mix-blend-mode:darken">
<g style="mix-blend-mode:darken">
<path d="M147 4H46C36.0589 4 28 12.0589 28 22V33C28 42.9411 36.0589 51 46 51H147C156.941 51 165 42.9411 165 33V22C165 12.0589 156.941 4 147 4Z" fill="#F4F4F4"/>
</g>
</g>
<path d="M28 56C43.464 56 56 43.464 56 28C56 12.536 43.464 0 28 0C12.536 0 0 12.536 0 28C0 43.464 12.536 56 28 56Z" fill="#2F2F2F"/>
<path fill-rule="evenodd" clip-rule="evenodd" d="M23 19V37L28 31.942L33 37V19H23Z" fill="#B1B1B1"/>
<path d="M66.1553 32V22.0469H69.4092C70.4893 22.0469 71.3005 22.2702 71.8428 22.7168C72.3896 23.1634 72.6631 23.8242 72.6631 24.6992C72.6631 25.1641 72.5309 25.5765 72.2666 25.9365C72.0023 26.292 71.6423 26.5677 71.1865 26.7637C71.7243 26.9141 72.1481 27.2012 72.458 27.625C72.7725 28.0443 72.9297 28.5456 72.9297 29.1289C72.9297 30.0221 72.6403 30.724 72.0615 31.2344C71.4827 31.7448 70.6647 32 69.6074 32H66.1553ZM67.4678 27.3447V30.9268H69.6348C70.2454 30.9268 70.7262 30.7695 71.0771 30.4551C71.4326 30.1361 71.6104 29.6986 71.6104 29.1426C71.6104 27.944 70.9587 27.3447 69.6553 27.3447H67.4678ZM67.4678 26.292H69.4502C70.0244 26.292 70.4824 26.1484 70.8242 25.8613C71.1706 25.5742 71.3438 25.1846 71.3438 24.6924C71.3438 24.1455 71.1842 23.749 70.8652 23.5029C70.5462 23.2523 70.0609 23.127 69.4092 23.127H67.4678V26.292ZM74.3447 28.2334C74.3447 27.5088 74.486 26.8571 74.7686 26.2783C75.0557 25.6995 75.4521 25.2529 75.958 24.9385C76.4684 24.624 77.0495 24.4668 77.7012 24.4668C78.7083 24.4668 79.5218 24.8154 80.1416 25.5127C80.766 26.21 81.0781 27.1374 81.0781 28.2949V28.3838C81.0781 29.1038 80.9391 29.751 80.6611 30.3252C80.3877 30.8949 79.9935 31.3392 79.4785 31.6582C78.9681 31.9772 78.3802 32.1367 77.7148 32.1367C76.7122 32.1367 75.8988 31.7881 75.2744 31.0908C74.6546 30.3936 74.3447 29.4707 74.3447 28.3223V28.2334ZM75.6162 28.3838C75.6162 29.2041 75.8053 29.8626 76.1836 30.3594C76.5664 30.8561 77.0768 31.1045 77.7148 31.1045C78.3574 31.1045 78.8678 30.8538 79.2461 30.3525C79.6243 29.8467 79.8135 29.1403 79.8135 28.2334C79.8135 27.4222 79.6198 26.766 79.2324 26.2646C78.8496 25.7588 78.3392 25.5059 77.7012 25.5059C77.0768 25.5059 76.5732 25.7542 76.1904 26.251C75.8076 26.7477 75.6162 27.4587 75.6162 28.3838ZM82.3291 28.2334C82.3291 27.5088 82.4704 26.8571 82.7529 26.2783C83.04 25.6995 83.4365 25.2529 83.9424 24.9385C84.4528 24.624 85.0339 24.4668 85.6855 24.4668C86.6927 24.4668 87.5062 24.8154 88.126 25.5127C88.7503 26.21 89.0625 27.1374 89.0625 28.2949V28.3838C89.0625 29.1038 88.9235 29.751 88.6455 30.3252C88.3721 30.8949 87.9779 31.3392 87.4629 31.6582C86.9525 31.9772 86.3646 32.1367 85.6992 32.1367C84.6966 32.1367 83.8831 31.7881 83.2588 31.0908C82.639 30.3936 82.3291 29.4707 82.3291 28.3223V28.2334ZM83.6006 28.3838C83.6006 29.2041 83.7897 29.8626 84.168 30.3594C84.5508 30.8561 85.0612 31.1045 85.6992 31.1045C86.3418 31.1045 86.8522 30.8538 87.2305 30.3525C87.6087 29.8467 87.7979 29.1403 87.7979 28.2334C87.7979 27.4222 87.6042 26.766 87.2168 26.2646C86.834 25.7588 86.3236 25.5059 85.6855 25.5059C85.0612 25.5059 84.5576 25.7542 84.1748 26.251C83.792 26.7477 83.6006 27.4587 83.6006 28.3838ZM92.7129 28.5752L91.9199 29.4023V32H90.6553V21.5H91.9199V27.8506L92.5967 27.0371L94.9004 24.6035H96.4385L93.5605 27.6934L96.7734 32H95.29L92.7129 28.5752ZM98.9336 24.6035L98.9678 25.4238C99.5101 24.7858 100.242 24.4668 101.162 24.4668C102.197 24.4668 102.901 24.8633 103.274 25.6562C103.521 25.3008 103.84 25.0137 104.231 24.7949C104.628 24.5762 105.095 24.4668 105.633 24.4668C107.255 24.4668 108.08 25.3258 108.107 27.0439V32H106.843V27.1191C106.843 26.5905 106.722 26.1963 106.48 25.9365C106.239 25.6722 105.833 25.54 105.264 25.54C104.794 25.54 104.405 25.6813 104.095 25.9639C103.785 26.2419 103.605 26.6178 103.555 27.0918V32H102.283V27.1533C102.283 26.0778 101.757 25.54 100.704 25.54C99.8747 25.54 99.3073 25.8932 99.002 26.5996V32H97.7373V24.6035H98.9336ZM114.588 32C114.515 31.8542 114.456 31.5944 114.41 31.2207C113.822 31.8314 113.12 32.1367 112.305 32.1367C111.576 32.1367 110.976 31.9316 110.507 31.5215C110.042 31.1068 109.81 30.5827 109.81 29.9492C109.81 29.179 110.101 28.582 110.685 28.1582C111.272 27.7298 112.097 27.5156 113.159 27.5156H114.39V26.9346C114.39 26.4925 114.257 26.1416 113.993 25.8818C113.729 25.6175 113.339 25.4854 112.824 25.4854C112.373 25.4854 111.995 25.5993 111.689 25.8271C111.384 26.055 111.231 26.3307 111.231 26.6543H109.96C109.96 26.2852 110.09 25.9297 110.35 25.5879C110.614 25.2415 110.969 24.9681 111.416 24.7676C111.867 24.5671 112.362 24.4668 112.899 24.4668C113.752 24.4668 114.419 24.681 114.902 25.1094C115.385 25.5332 115.636 26.1188 115.654 26.8662V30.2705C115.654 30.9495 115.741 31.4896 115.914 31.8906V32H114.588ZM112.489 31.0361C112.886 31.0361 113.262 30.9336 113.617 30.7285C113.973 30.5234 114.23 30.2568 114.39 29.9287V28.4111H113.398C111.849 28.4111 111.074 28.8646 111.074 29.7715C111.074 30.168 111.206 30.4779 111.471 30.7012C111.735 30.9245 112.075 31.0361 112.489 31.0361ZM121.212 25.7383C121.021 25.7064 120.813 25.6904 120.59 25.6904C119.76 25.6904 119.198 26.0436 118.901 26.75V32H117.637V24.6035H118.867L118.888 25.458C119.302 24.7972 119.89 24.4668 120.651 24.4668C120.897 24.4668 121.084 24.4987 121.212 24.5625V25.7383ZM124.445 28.5752L123.652 29.4023V32H122.388V21.5H123.652V27.8506L124.329 27.0371L126.633 24.6035H128.171L125.293 27.6934L128.506 32H127.022L124.445 28.5752ZM132.409 32.1367C131.407 32.1367 130.591 31.8086 129.962 31.1523C129.333 30.4915 129.019 29.6097 129.019 28.5068V28.2744C129.019 27.5407 129.158 26.8867 129.436 26.3125C129.718 25.7337 130.11 25.2826 130.611 24.959C131.117 24.6309 131.664 24.4668 132.252 24.4668C133.214 24.4668 133.961 24.7835 134.494 25.417C135.027 26.0505 135.294 26.9574 135.294 28.1377V28.6641H130.283C130.301 29.3932 130.513 29.9834 130.919 30.4346C131.329 30.8812 131.849 31.1045 132.478 31.1045C132.924 31.1045 133.302 31.0133 133.612 30.8311C133.922 30.6488 134.193 30.4072 134.426 30.1064L135.198 30.708C134.578 31.6605 133.649 32.1367 132.409 32.1367ZM132.252 25.5059C131.742 25.5059 131.313 25.6927 130.967 26.0664C130.62 26.4355 130.406 26.9551 130.324 27.625H134.029V27.5293C133.993 26.8867 133.82 26.39 133.51 26.0391C133.2 25.6836 132.781 25.5059 132.252 25.5059ZM136.456 28.2402C136.456 27.1055 136.725 26.194 137.263 25.5059C137.8 24.8132 138.505 24.4668 139.375 24.4668C140.241 24.4668 140.927 24.763 141.433 25.3555V21.5H142.697V32H141.535L141.474 31.207C140.968 31.8268 140.264 32.1367 139.361 32.1367C138.505 32.1367 137.805 31.7858 137.263 31.084C136.725 30.3822 136.456 29.4661 136.456 28.3359V28.2402ZM137.721 28.3838C137.721 29.2223 137.894 29.8786 138.24 30.3525C138.587 30.8265 139.065 31.0635 139.676 31.0635C140.478 31.0635 141.063 30.7035 141.433 29.9834V26.5859C141.054 25.8887 140.473 25.54 139.689 25.54C139.07 25.54 138.587 25.7793 138.24 26.2578C137.894 26.7363 137.721 27.445 137.721 28.3838Z" fill="#B1B1B1"/>
</svg>
