<svg width="165" height="56" viewBox="0 0 165 56" fill="none" xmlns="http://www.w3.org/2000/svg">
<g style="mix-blend-mode:darken">
<g style="mix-blend-mode:darken">
<path d="M147 4H46C36.0589 4 28 12.0589 28 22V33C28 42.9411 36.0589 51 46 51H147C156.941 51 165 42.9411 165 33V22C165 12.0589 156.941 4 147 4Z" fill="#F4F4F4"/>
</g>
</g>
<path d="M28 56C43.464 56 56 43.464 56 28C56 12.536 43.464 0 28 0C12.536 0 0 12.536 0 28C0 43.464 12.536 56 28 56Z" fill="#2F2F2F"/>
<path fill-rule="evenodd" clip-rule="evenodd" d="M23 19V37L28 31.942L33 37V19H23Z" fill="#B1B1B1"/>
<path d="M65.1553 32V22.0469H68.4092C69.4893 22.0469 70.3005 22.2702 70.8428 22.7168C71.3896 23.1634 71.6631 23.8242 71.6631 24.6992C71.6631 25.1641 71.5309 25.5765 71.2666 25.9365C71.0023 26.292 70.6423 26.5677 70.1865 26.7637C70.7243 26.9141 71.1481 27.2012 71.458 27.625C71.7725 28.0443 71.9297 28.5456 71.9297 29.1289C71.9297 30.0221 71.6403 30.724 71.0615 31.2344C70.4827 31.7448 69.6647 32 68.6074 32H65.1553ZM66.4678 27.3447V30.9268H68.6348C69.2454 30.9268 69.7262 30.7695 70.0771 30.4551C70.4326 30.1361 70.6104 29.6986 70.6104 29.1426C70.6104 27.944 69.9587 27.3447 68.6553 27.3447H66.4678ZM66.4678 26.292H68.4502C69.0244 26.292 69.4824 26.1484 69.8242 25.8613C70.1706 25.5742 70.3438 25.1846 70.3438 24.6924C70.3438 24.1455 70.1842 23.749 69.8652 23.5029C69.5462 23.2523 69.0609 23.127 68.4092 23.127H66.4678V26.292ZM73.3447 28.2334C73.3447 27.5088 73.486 26.8571 73.7686 26.2783C74.0557 25.6995 74.4521 25.2529 74.958 24.9385C75.4684 24.624 76.0495 24.4668 76.7012 24.4668C77.7083 24.4668 78.5218 24.8154 79.1416 25.5127C79.766 26.21 80.0781 27.1374 80.0781 28.2949V28.3838C80.0781 29.1038 79.9391 29.751 79.6611 30.3252C79.3877 30.8949 78.9935 31.3392 78.4785 31.6582C77.9681 31.9772 77.3802 32.1367 76.7148 32.1367C75.7122 32.1367 74.8988 31.7881 74.2744 31.0908C73.6546 30.3936 73.3447 29.4707 73.3447 28.3223V28.2334ZM74.6162 28.3838C74.6162 29.2041 74.8053 29.8626 75.1836 30.3594C75.5664 30.8561 76.0768 31.1045 76.7148 31.1045C77.3574 31.1045 77.8678 30.8538 78.2461 30.3525C78.6243 29.8467 78.8135 29.1403 78.8135 28.2334C78.8135 27.4222 78.6198 26.766 78.2324 26.2646C77.8496 25.7588 77.3392 25.5059 76.7012 25.5059C76.0768 25.5059 75.5732 25.7542 75.1904 26.251C74.8076 26.7477 74.6162 27.4587 74.6162 28.3838ZM81.3291 28.2334C81.3291 27.5088 81.4704 26.8571 81.7529 26.2783C82.04 25.6995 82.4365 25.2529 82.9424 24.9385C83.4528 24.624 84.0339 24.4668 84.6855 24.4668C85.6927 24.4668 86.5062 24.8154 87.126 25.5127C87.7503 26.21 88.0625 27.1374 88.0625 28.2949V28.3838C88.0625 29.1038 87.9235 29.751 87.6455 30.3252C87.3721 30.8949 86.9779 31.3392 86.4629 31.6582C85.9525 31.9772 85.3646 32.1367 84.6992 32.1367C83.6966 32.1367 82.8831 31.7881 82.2588 31.0908C81.639 30.3936 81.3291 29.4707 81.3291 28.3223V28.2334ZM82.6006 28.3838C82.6006 29.2041 82.7897 29.8626 83.168 30.3594C83.5508 30.8561 84.0612 31.1045 84.6992 31.1045C85.3418 31.1045 85.8522 30.8538 86.2305 30.3525C86.6087 29.8467 86.7979 29.1403 86.7979 28.2334C86.7979 27.4222 86.6042 26.766 86.2168 26.2646C85.834 25.7588 85.3236 25.5059 84.6855 25.5059C84.0612 25.5059 83.5576 25.7542 83.1748 26.251C82.792 26.7477 82.6006 27.4587 82.6006 28.3838ZM91.7129 28.5752L90.9199 29.4023V32H89.6553V21.5H90.9199V27.8506L91.5967 27.0371L93.9004 24.6035H95.4385L92.5605 27.6934L95.7734 32H94.29L91.7129 28.5752ZM97.9336 24.6035L97.9678 25.4238C98.5101 24.7858 99.2415 24.4668 100.162 24.4668C101.197 24.4668 101.901 24.8633 102.274 25.6562C102.521 25.3008 102.84 25.0137 103.231 24.7949C103.628 24.5762 104.095 24.4668 104.633 24.4668C106.255 24.4668 107.08 25.3258 107.107 27.0439V32H105.843V27.1191C105.843 26.5905 105.722 26.1963 105.48 25.9365C105.239 25.6722 104.833 25.54 104.264 25.54C103.794 25.54 103.405 25.6813 103.095 25.9639C102.785 26.2419 102.605 26.6178 102.555 27.0918V32H101.283V27.1533C101.283 26.0778 100.757 25.54 99.7041 25.54C98.8747 25.54 98.3073 25.8932 98.002 26.5996V32H96.7373V24.6035H97.9336ZM113.588 32C113.515 31.8542 113.456 31.5944 113.41 31.2207C112.822 31.8314 112.12 32.1367 111.305 32.1367C110.576 32.1367 109.976 31.9316 109.507 31.5215C109.042 31.1068 108.81 30.5827 108.81 29.9492C108.81 29.179 109.101 28.582 109.685 28.1582C110.272 27.7298 111.097 27.5156 112.159 27.5156H113.39V26.9346C113.39 26.4925 113.257 26.1416 112.993 25.8818C112.729 25.6175 112.339 25.4854 111.824 25.4854C111.373 25.4854 110.995 25.5993 110.689 25.8271C110.384 26.055 110.231 26.3307 110.231 26.6543H108.96C108.96 26.2852 109.09 25.9297 109.35 25.5879C109.614 25.2415 109.969 24.9681 110.416 24.7676C110.867 24.5671 111.362 24.4668 111.899 24.4668C112.752 24.4668 113.419 24.681 113.902 25.1094C114.385 25.5332 114.636 26.1188 114.654 26.8662V30.2705C114.654 30.9495 114.741 31.4896 114.914 31.8906V32H113.588ZM111.489 31.0361C111.886 31.0361 112.262 30.9336 112.617 30.7285C112.973 30.5234 113.23 30.2568 113.39 29.9287V28.4111H112.398C110.849 28.4111 110.074 28.8646 110.074 29.7715C110.074 30.168 110.206 30.4779 110.471 30.7012C110.735 30.9245 111.075 31.0361 111.489 31.0361ZM120.212 25.7383C120.021 25.7064 119.813 25.6904 119.59 25.6904C118.76 25.6904 118.198 26.0436 117.901 26.75V32H116.637V24.6035H117.867L117.888 25.458C118.302 24.7972 118.89 24.4668 119.651 24.4668C119.897 24.4668 120.084 24.4987 120.212 24.5625V25.7383ZM123.445 28.5752L122.652 29.4023V32H121.388V21.5H122.652V27.8506L123.329 27.0371L125.633 24.6035H127.171L124.293 27.6934L127.506 32H126.022L123.445 28.5752Z" fill="#B1B1B1"/>
</svg>
